<svg xmlns="http://www.w3.org/2000/svg" xmlns:xlink="http://www.w3.org/1999/xlink" viewBox="0 0 53.303 29.502">
  <defs>
    <linearGradient id="b">
      <stop offset="0"/>
      <stop offset="1" stop-opacity="0"/>
    </linearGradient>
    <linearGradient id="a">
      <stop offset="0"/>
      <stop offset="1" stop-opacity="0"/>
    </linearGradient>
    <linearGradient xlink:href="#a" id="d" x1="209.089" y1="214.86" x2="229.402" y2="227.715" gradientUnits="userSpaceOnUse" gradientTransform="translate(-126.195 -179.291)"/>
    <linearGradient xlink:href="#b" id="c" x1="258.482" y1="216.75" x2="274.463" y2="228.764" gradientUnits="userSpaceOnUse" gradientTransform="translate(-126.195 -179.291)"/>
  </defs>
  <g fill="currentcolor">
    <path d="M3.207 15.09A3.207 3.207 0 0 0 0 18.296v.002a3.207 3.207 0 0 0 3.21 3.205 3.207 3.207 0 0 0 3.204-3.209 3.207 3.207 0 0 0-3.207-3.205zm0 .744a2.463 2.463 0 0 1 2.463 2.461 2.463 2.463 0 0 1-2.461 2.464A2.463 2.463 0 0 1 .744 18.3v-.003a2.463 2.463 0 0 1 2.463-2.462zM5.974 21.372a2.932 2.932 0 0 0-2.93 2.931v.003a2.932 2.932 0 0 0 2.932 2.929 2.932 2.932 0 0 0 2.93-2.933 2.932 2.932 0 0 0-2.932-2.93zm0 .669a2.262 2.262 0 0 1 2.263 2.261 2.262 2.262 0 0 1-2.261 2.264 2.262 2.262 0 0 1-2.263-2.26v-.003a2.262 2.262 0 0 1 2.261-2.262zM11.119 24.474a2.514 2.514 0 0 0-2.513 2.514v.002a2.514 2.514 0 0 0 2.515 2.512 2.514 2.514 0 0 0 2.512-2.515 2.514 2.514 0 0 0-2.514-2.513zm0 .624a1.89 1.89 0 0 1 1.89 1.889 1.89 1.89 0 0 1-1.888 1.89A1.89 1.89 0 0 1 9.23 26.99v-.002a1.89 1.89 0 0 1 1.89-1.89zM16.12 24.53a2.18 2.18 0 0 0-2.179 2.18v.002a2.18 2.18 0 0 0 2.18 2.177 2.18 2.18 0 0 0 2.179-2.18 2.18 2.18 0 0 0-2.18-2.179zm0 .555a1.624 1.624 0 0 1 1.625 1.624 1.624 1.624 0 0 1-1.623 1.625 1.624 1.624 0 0 1-1.626-1.623v-.002a1.624 1.624 0 0 1 1.624-1.624zM19.716 24.225a1.27 1.27 0 0 0-1.27 1.27v.001a1.27 1.27 0 0 0 1.27 1.269 1.27 1.27 0 0 0 1.27-1.27 1.27 1.27 0 0 0-1.27-1.27zm0 .597a.674.674 0 0 1 .673.673.674.674 0 0 1-.673.674.674.674 0 0 1-.674-.673v-.001a.674.674 0 0 1 .674-.673zM21.552 22.907a.784.784 0 0 0-.784.784.784.784 0 0 0 .784.784.784.784 0 0 0 .784-.784.784.784 0 0 0-.784-.784zm0 .42a.363.363 0 0 1 .364.364.363.363 0 0 1-.364.364.363.363 0 0 1-.364-.363v-.001a.363.363 0 0 1 .364-.363zM8.606 2.514A2.514 2.514 0 0 1 11.119 0a2.514 2.514 0 0 1 2.515 2.513 2.514 2.514 0 0 1-2.513 2.515 2.514 2.514 0 0 1-2.515-2.512M18.367 4.011a1.27 1.27 0 0 1 1.269-1.27 1.27 1.27 0 0 1 1.27 1.27 1.27 1.27 0 0 1-1.269 1.27 1.27 1.27 0 0 1-1.27-1.269M20.768 5.832a.784.784 0 0 1 .784-.784.784.784 0 0 1 .784.783.784.784 0 0 1-.784.785.784.784 0 0 1-.784-.784M13.968 2.818a2.18 2.18 0 0 1 2.178-2.18 2.18 2.18 0 0 1 2.18 2.179 2.18 2.18 0 0 1-2.178 2.18 2.18 2.18 0 0 1-2.18-2.178M3.043 5.253a2.932 2.932 0 0 1 2.931-2.931 2.932 2.932 0 0 1 2.932 2.93 2.932 2.932 0 0 1-2.93 2.933 2.932 2.932 0 0 1-2.933-2.93M0 11.232a3.207 3.207 0 0 1 3.206-3.207 3.207 3.207 0 0 1 3.208 3.206 3.207 3.207 0 0 1-3.205 3.208A3.207 3.207 0 0 1 0 11.235"/>
  </g>
  <path d="M12.854.698a2.514 2.514 0 0 1 .328 1.236 2.514 2.514 0 0 1-2.512 2.515 2.514 2.514 0 0 1-1.736-.698 2.514 2.514 0 0 0 2.187 1.277 2.514 2.514 0 0 0 2.512-2.515 2.514 2.514 0 0 0-.78-1.815zm5.29 1.254a2.315 2.723 0 0 1-2.287 2.332 2.315 2.723 0 0 1-1.858-1.1 2.18 2.18 0 0 0 2.15 1.813 2.18 2.18 0 0 0 2.177-2.18 2.18 2.18 0 0 0-.183-.865zm-10.377.986a2.932 2.932 0 0 1 .61 1.785 2.932 2.932 0 0 1-2.93 2.933 2.932 2.932 0 0 1-1.795-.618 2.932 2.932 0 0 0 2.324 1.147 2.932 2.932 0 0 0 2.93-2.933 2.932 2.932 0 0 0-1.139-2.314zm13.052.611a1.73 1.795 0 0 1-1.542.988 1.73 1.795 0 0 1-.88-.251 1.27 1.27 0 0 0 1.24.995 1.27 1.27 0 0 0 1.269-1.27 1.27 1.27 0 0 0-.087-.462zm1.21 1.663a1.004 1.098 0 0 1-.98.87 1.004 1.098 0 0 1-.251-.037.784.784 0 0 0 .754.57.784.784 0 0 0 .783-.783.784.784 0 0 0-.306-.62zM5.201 8.725a3.207 3.207 0 0 1 .684 1.977A3.207 3.207 0 0 1 2.68 13.91a3.207 3.207 0 0 1-1.996-.699 3.207 3.207 0 0 0 2.525 1.228 3.207 3.207 0 0 0 3.205-3.208A3.207 3.207 0 0 0 5.2 8.725zm0 7.064a3.207 3.207 0 0 1 .684 1.977 3.207 3.207 0 0 1-.763 2.076 2.463 2.463 0 0 1-.41.403 3.207 3.207 0 0 1-2.032.73 3.207 3.207 0 0 1-1.996-.7 3.207 3.207 0 0 0 2.525 1.229 3.207 3.207 0 0 0 3.205-3.209A3.207 3.207 0 0 0 5.2 15.789zm2.566 6.2a2.932 2.932 0 0 1 .61 1.784 2.932 2.932 0 0 1-.216 1.1 2.262 2.262 0 0 1-1.621 1.619 2.932 2.932 0 0 1-1.093.214 2.932 2.932 0 0 1-1.795-.618 2.932 2.932 0 0 0 2.324 1.147 2.932 2.932 0 0 0 2.93-2.933 2.932 2.932 0 0 0-1.139-2.314zM22.03 23.07a1.004 1.098 0 0 1-.173.422.363.363 0 0 1 .06.198.363.363 0 0 1-.364.364.363.363 0 0 1-.288-.142 1.004 1.098 0 0 1-.215.028 1.004 1.098 0 0 1-.251-.037.784.784 0 0 0 .754.571.784.784 0 0 0 .783-.784.784.784 0 0 0-.306-.62zm-1.131 1.962a1.73 1.795 0 0 1-.536.649.674.674 0 0 1-.646.487.674.674 0 0 1-.426-.152 1.73 1.795 0 0 1-.813-.247 1.27 1.27 0 0 0 1.239.995 1.27 1.27 0 0 0 1.27-1.27 1.27 1.27 0 0 0-.088-.462zm-8.044.14a2.514 2.514 0 0 1 .328 1.235 2.514 2.514 0 0 1-.237 1.062 1.89 1.89 0 0 1-1.809 1.407 2.514 2.514 0 0 1-.466.046 2.514 2.514 0 0 1-1.736-.698 2.514 2.514 0 0 0 2.187 1.277 2.514 2.514 0 0 0 2.512-2.515 2.514 2.514 0 0 0-.78-1.815zm5.263.67a2.315 2.723 0 0 1-.404 1.182 1.624 1.624 0 0 1-1.592 1.31 1.624 1.624 0 0 1-.852-.244 2.315 2.723 0 0 1-1.296-1.016 2.18 2.18 0 0 0 2.149 1.814 2.18 2.18 0 0 0 2.177-2.18 2.18 2.18 0 0 0-.182-.866z" opacity=".2" fill-opacity=".997"/>
  <g>
    <path d="M37.89 9.924a2.295 2.295 0 0 0-2.299 2.3v.394c0 1.074.729 1.968 1.72 2.225a2.292 2.292 0 0 0-1.72 2.223v.394c0 1.275 1.026 2.3 2.3 2.3h9.092c1.274 0 2.3-1.025 2.3-2.3v-.394c0-1.073-.729-1.967-1.72-2.223a2.293 2.293 0 0 0 1.72-2.225v-.393c0-1.275-1.026-2.3-2.3-2.3zm2.07 2.24h4.877c.684 0 1.234.367 1.234.824 0 .457-.55.825-1.234.825H39.96c-.683 0-1.234-.368-1.234-.825 0-.457.55-.824 1.234-.824zm-.33 3.714h5.454c.498 0 .9.328.9.735 0 .408-.402.736-.9.736h-5.455c-.498 0-.9-.328-.9-.736 0-.407.402-.735.9-.735z" fill="currentcolor"/>
    <path transform="scale(.26458)" d="M143.209 37.51a8.673 8.673 0 0 0-8.691 8.693v1.488a8.666 8.666 0 0 0 6.5 8.407 8.663 8.663 0 0 0-6.5 8.404v1.49a8.673 8.673 0 0 0 8.691 8.694h20.541v-9.114h-13.97c-1.885 0-3.401-1.24-3.401-2.781 0-1.54 1.516-2.781 3.4-2.781h13.971v-7.803h-12.719c-2.584 0-4.664-1.39-4.664-3.117 0-1.728 2.08-3.117 4.664-3.117h12.719V37.51h-20.541z" fill="url(#c)"/>
    <path d="M23.897 9.924l5.835 9.899h3.166l5.836-9.899L35 9.971l-3.686 6.349-3.686-6.349z" fill="currentcolor"/>
    <path transform="matrix(.26458 0 0 .26458 0 .06)" d="M90.318 37.281l22.055 37.41h6.502V60.56l-.52.894-13.93-23.994z" fill="url(#d)"/>
    <path d="M14.913 9.924a3.093 3.093 0 0 0-3.1 3.1v3.857c0 1.717 1.382 3.1 3.1 3.1H25.31V14.435h-6.18v2.572h2.952v.485h-5.44a1.619 1.619 0 0 1-1.622-1.622v-2.018c0-.899.723-1.622 1.622-1.622h5.441v.005h.296c.028-.002.055-.005.084-.005h2.847V9.924z" fill="currentcolor"/>
    <g style="line-height:1.25">
      <path d="M51.133 2.915q-.354 0-.658.128-.305.126-.56.381-.255.255-.383.56-.126.301-.126.658 0 .355.126.66.128.3.383.556.252.251.557.377.307.126.661.126.36 0 .662-.123.302-.126.557-.38.254-.255.38-.557.13-.304.13-.659 0-.357-.13-.659-.126-.304-.38-.559-.258-.258-.563-.383-.301-.126-.656-.126zm-.167.864h-.102v.606h.102q.229 0 .343-.076.117-.08.117-.232 0-.152-.114-.225-.111-.073-.346-.073zm.109-.405q.515 0 .77.176.255.173.255.527 0 .252-.155.416-.153.164-.434.214.12.064.223.181.105.117.19.287l.325.647h-.67l-.314-.623q-.111-.229-.196-.322-.085-.097-.17-.097h-.035v1.042h-.624V3.374zm.058-.91q.446 0 .83.16.386.162.705.481.32.32.477.703.158.383.158.834 0 .445-.158.83-.158.38-.477.699-.32.32-.706.48-.383.161-.829.161-.445 0-.831-.16-.384-.162-.703-.481-.32-.32-.477-.7-.158-.384-.158-.829 0-.45.158-.834.158-.384.477-.703.32-.32.703-.48.386-.161.831-.161z" style="-inkscape-font-specification:'sans-serif Bold'" font-weight="700" font-size="5.997" aria-label="®" font-family="sans-serif" letter-spacing="0" word-spacing="0" fill="currentcolor" stroke-width=".265"/>
    </g>
    <g style="line-height:1.25">
      <path style="-inkscape-font-specification:'Segoe UI Historic'" d="M30.444 23.57a.888.888 0 0 0-.221.029.618.618 0 0 0-.192.084.442.442 0 0 0-.136.144.393.393 0 0 0-.052.206c0 .064.011.12.033.169.022.047.053.09.092.127a.729.729 0 0 0 .136.104c.052.031.108.062.169.093.057.029.11.056.159.083.05.026.093.053.129.082a.33.33 0 0 1 .084.094c.021.035.032.075.032.122a.235.235 0 0 1-.093.2c-.061.046-.154.069-.279.069a1.051 1.051 0 0 1-.246-.04.88.88 0 0 1-.12-.05.47.47 0 0 1-.098-.066v.239c.023.015.052.03.089.042a1.139 1.139 0 0 0 .578.031.574.574 0 0 0 .195-.08.404.404 0 0 0 .186-.36.38.38 0 0 0-.038-.171.486.486 0 0 0-.098-.136.807.807 0 0 0-.147-.112 2.267 2.267 0 0 0-.175-.097 5.629 5.629 0 0 1-.16-.082.735.735 0 0 1-.118-.077.287.287 0 0 1-.073-.088.254.254 0 0 1-.024-.114c0-.048.01-.088.032-.12a.262.262 0 0 1 .084-.082.365.365 0 0 1 .119-.044.621.621 0 0 1 .133-.015c.16 0 .29.035.392.106v-.228c-.078-.04-.202-.061-.372-.061zm-6.15.014a.888.888 0 0 0-.221.027.62.62 0 0 0-.192.085.442.442 0 0 0-.136.144.391.391 0 0 0-.052.205c0 .064.011.12.033.169.022.047.053.09.092.128a.73.73 0 0 0 .136.104c.052.03.108.062.169.093.057.028.11.056.159.083.05.025.093.052.129.081a.33.33 0 0 1 .084.094c.021.035.032.076.032.122a.235.235 0 0 1-.093.2c-.061.046-.154.07-.279.07a1.046 1.046 0 0 1-.246-.04.882.882 0 0 1-.12-.051.47.47 0 0 1-.098-.065v.238a.384.384 0 0 0 .089.043 1.139 1.139 0 0 0 .578.032.574.574 0 0 0 .195-.08.405.405 0 0 0 .186-.361.377.377 0 0 0-.038-.171.488.488 0 0 0-.098-.136.807.807 0 0 0-.147-.113 2.268 2.268 0 0 0-.175-.096 5.716 5.716 0 0 1-.16-.082.736.736 0 0 1-.118-.077.287.287 0 0 1-.073-.088.254.254 0 0 1-.024-.115c0-.047.01-.087.032-.12a.26.26 0 0 1 .084-.081.366.366 0 0 1 .119-.045.621.621 0 0 1 .133-.014c.16 0 .29.035.392.106v-.228c-.078-.04-.202-.061-.372-.061zm11.742 0a.888.888 0 0 0-.221.027.62.62 0 0 0-.192.085.442.442 0 0 0-.136.144.391.391 0 0 0-.052.205c0 .064.011.12.033.169.022.047.053.09.092.128a.73.73 0 0 0 .136.104c.052.03.108.062.169.093.057.028.11.056.159.083.05.025.093.052.129.081a.33.33 0 0 1 .084.094c.021.035.032.076.032.122a.235.235 0 0 1-.093.2c-.061.046-.154.07-.279.07a1.047 1.047 0 0 1-.246-.04.882.882 0 0 1-.12-.051.47.47 0 0 1-.098-.065v.238a.384.384 0 0 0 .089.043 1.139 1.139 0 0 0 .578.032.574.574 0 0 0 .195-.08.405.405 0 0 0 .186-.361.377.377 0 0 0-.038-.171.488.488 0 0 0-.098-.136.807.807 0 0 0-.147-.113 2.266 2.266 0 0 0-.175-.096 5.713 5.713 0 0 1-.161-.082.736.736 0 0 1-.117-.077.287.287 0 0 1-.073-.088.254.254 0 0 1-.024-.115c0-.047.01-.087.032-.12a.26.26 0 0 1 .084-.081.366.366 0 0 1 .119-.045.621.621 0 0 1 .132-.014c.16 0 .291.035.393.106v-.228c-.078-.04-.202-.061-.372-.061zm2.58 0a.888.888 0 0 0-.22.027.62.62 0 0 0-.192.085.444.444 0 0 0-.136.144.39.39 0 0 0-.052.205c0 .064.01.12.032.169.023.047.053.09.092.128a.733.733 0 0 0 .136.104c.053.03.108.062.169.093.057.028.11.056.159.083.05.025.093.052.13.081.035.029.063.06.083.094.021.035.032.076.032.122 0 .087-.03.154-.093.2-.06.046-.154.07-.278.07a1.046 1.046 0 0 1-.246-.04.89.89 0 0 1-.121-.051.469.469 0 0 1-.098-.065v.238a.388.388 0 0 0 .09.043 1.138 1.138 0 0 0 .577.032.574.574 0 0 0 .195-.08.406.406 0 0 0 .186-.361.377.377 0 0 0-.037-.171.488.488 0 0 0-.1-.136.803.803 0 0 0-.145-.113 2.291 2.291 0 0 0-.176-.096 5.568 5.568 0 0 1-.16-.082.74.74 0 0 1-.118-.077.288.288 0 0 1-.073-.088.254.254 0 0 1-.024-.115c0-.047.01-.087.032-.12a.262.262 0 0 1 .085-.081.363.363 0 0 1 .118-.045.622.622 0 0 1 .133-.014c.16 0 .29.035.393.106v-.228c-.078-.04-.202-.061-.373-.061zm9.79 0a.888.888 0 0 0-.22.027.62.62 0 0 0-.191.085.444.444 0 0 0-.137.144.39.39 0 0 0-.052.205c0 .064.011.12.033.169.022.047.053.09.091.128a.733.733 0 0 0 .137.104c.052.03.108.062.168.093.057.028.11.056.16.083.05.025.093.052.129.081.036.029.064.06.084.094.02.035.031.076.031.122a.235.235 0 0 1-.093.2c-.06.046-.153.07-.278.07a1.054 1.054 0 0 1-.246-.04.884.884 0 0 1-.12-.051.469.469 0 0 1-.098-.065v.238a.388.388 0 0 0 .09.043 1.138 1.138 0 0 0 .578.032.571.571 0 0 0 .194-.08.406.406 0 0 0 .186-.361.377.377 0 0 0-.038-.171.488.488 0 0 0-.099-.136.803.803 0 0 0-.145-.113 2.29 2.29 0 0 0-.176-.096 5.568 5.568 0 0 1-.16-.082.74.74 0 0 1-.118-.077.288.288 0 0 1-.073-.088.254.254 0 0 1-.025-.115c0-.047.012-.087.033-.12a.26.26 0 0 1 .085-.081.366.366 0 0 1 .118-.045.617.617 0 0 1 .132-.014c.16 0 .291.035.394.106v-.228c-.078-.04-.203-.061-.373-.061zm-20.177.007v1.729h.916v-.184h-.714v-.605h.625v-.182h-.625v-.575h.675v-.183zm4.473 0v1.729h.917v-.184h-.714v-.605h.625v-.182h-.625v-.575h.675v-.183zm8.889 0v1.729h.917v-.184h-.715v-.605h.625v-.182h-.625v-.575h.676v-.183zm1.581 0v1.729h.195v-1.158c0-.156-.003-.27-.01-.339h.006c.018.08.035.139.051.178l.59 1.319h.099l.591-1.33c.015-.033.032-.089.052-.167h.005a4.085 4.085 0 0 0-.017.337v1.16h.201v-1.73h-.253l-.541 1.202c-.021.046-.05.117-.084.212h-.007a1.544 1.544 0 0 0-.08-.208l-.53-1.205zm3.091 0L45.6 25.32h.226l.172-.485h.733l.184.485h.224l-.666-1.73zm-19.93.012v.184h.498v1.545h.203v-1.545h.499v-.184zm13.393 0v.184h.498v1.545h.203v-1.545h.499v-.184zm-14.291.013v1.73h.202v-1.73zm11.71 0v1.73h.203v-1.73zm9.217.185h.005a.704.704 0 0 0 .027.115l.27.737h-.599l.27-.737a.658.658 0 0 0 .027-.115z" font-size="2.469" font-family="Segoe UI Historic" aria-label="S" font-weight="400" letter-spacing="0" word-spacing="0" fill="currentcolor" stroke-width=".265"/>
    </g>
  </g>
</svg>